<?xml version="1.0" encoding="UTF-8" standalone="no"?>
<!-- Created with Inkscape (http://www.inkscape.org/) -->

<svg
   width="1302.2806mm"
   height="15.544287mm"
   viewBox="0 0 1302.2807 15.544287"
   version="1.1"
   id="svg5"
   xmlns="http://www.w3.org/2000/svg"
   xmlns:svg="http://www.w3.org/2000/svg">
  <defs
     id="defs2" />
  <g
     id="layer1"
     transform="translate(-2.7267991,-22.283204)">
    <g
       aria-label="CATALYZING CHANGE IN SOCIETY THROUGH CUTTING-EDGE SYSTEM APPLICATIONS "
       id="text10788"
       style="font-size:22.5778px;font-family:'Akira Expanded';-inkscape-font-specification:'Akira Expanded, ';fill:#000000;fill-opacity:1;stroke:none;stroke-width:0.0700042">
      <path
         d="m 17.014393,31.323144 c -0.529167,1.455209 -2.182815,1.807988 -4.167192,1.807988 -2.359204,-0.03307 -4.3656293,-0.474046 -4.3325564,-2.888371 v -0.363803 c -0.033073,-2.436374 1.9733524,-2.855298 4.3325564,-2.888371 1.984377,0 3.627,0.341754 4.167192,1.796964 h 5.920058 C 22.570649,23.793535 18.18297,22.294228 12.847201,22.283204 7.2909455,22.305252 2.7048297,23.914803 2.7268783,29.515156 v 1.080383 c -0.022049,5.611377 4.5640672,7.220927 10.1203227,7.231952 5.335769,0 9.723448,-1.499308 10.08725,-6.504347 z"
         id="path10840" />
      <path
         d="m 33.440624,26.957514 2.028474,4.376654 H 31.401125 Z M 22.052505,37.485737 h 6.504347 l 1.168577,-2.535593 h 7.419365 l 1.168578,2.535593 h 6.504347 L 36.869186,22.669055 h -6.868149 z"
         id="path10842" />
      <path
         d="M 53.626149,37.485737 V 27.365414 h 6.868149 v -4.696359 h -19.51304 v 4.696359 h 6.868149 v 10.120323 z"
         id="path10844" />
      <path
         d="m 68.045952,26.957514 2.028474,4.376654 h -4.067973 z m -11.38812,10.528223 h 6.504347 l 1.168578,-2.535593 h 7.419365 l 1.168578,2.535593 h 6.504346 L 71.474514,22.669055 h -6.868149 z"
         id="path10846" />
      <path
         d="M 79.864024,22.647006 V 37.463688 H 97.205275 V 32.767329 H 85.640766 V 22.647006 Z"
         id="path10848" />
      <path
         d="m 100.23696,22.669055 h -6.868152 l 8.312332,9.75652 v 5.060162 h 5.77674 v -5.060162 l 8.31234,-9.75652 h -6.85713 l -4.34358,5.313721 z"
         id="path10850" />
      <path
         d="m 125.96771,27.365414 -9.75652,5.412939 v 4.707384 h 19.14924 v -4.707384 h -10.1093 l 10.1093,-5.412939 v -4.696359 h -19.14924 v 4.696359 z"
         id="path10852" />
      <path
         d="m 138.03935,22.647006 v 14.816682 h 5.77674 V 22.647006 Z"
         id="path10854" />
      <path
         d="m 161.33372,30.49632 -6.50435,-7.849314 h -7.94853 v 14.816682 h 5.77674 v -9.050964 l 7.95956,9.050964 h 6.50435 V 22.647006 h -5.78777 z"
         id="path10856" />
      <path
         d="m 179.24823,31.863335 h 4.65226 c -0.87092,1.12448 -2.32613,1.256772 -4.60816,1.256772 -2.37023,-0.03307 -4.37665,-0.451997 -4.34358,-2.888371 v -0.363802 c -0.0331,-2.414326 1.97335,-2.855298 4.34358,-2.888371 0.84887,0 1.62058,0.08819 2.30408,0.264583 0.68351,0.176389 1.21268,0.507119 1.57648,1.003213 h 6.14054 c -0.65043,-4.564067 -4.88377,-5.964155 -10.0211,-5.964155 -5.5783,0.01102 -10.14237,1.620574 -10.12032,7.231952 v 1.080383 c -0.0221,5.600353 4.54202,7.209903 10.12032,7.231952 2.51354,0 5.12631,-0.606338 6.8461,-2.304083 l 0.28663,2.304083 h 2.88837 v -8.499749 h -10.0652 z"
         id="path10858" />
      <path
         d="m 215.06624,31.323144 c -0.52916,1.455209 -2.18281,1.807988 -4.16719,1.807988 -2.3592,-0.03307 -4.36563,-0.474046 -4.33256,-2.888371 v -0.363803 c -0.0331,-2.436374 1.97336,-2.855298 4.33256,-2.888371 1.98438,0 3.627,0.341754 4.16719,1.796964 h 5.92006 c -0.3638,-4.994016 -4.75148,-6.493323 -10.08725,-6.504347 -5.55626,0.02205 -10.14237,1.631599 -10.12032,7.231952 v 1.080383 c -0.0221,5.611377 4.56406,7.220927 10.12032,7.231952 5.33577,0 9.72345,-1.499308 10.08725,-6.504347 z"
         id="path10860" />
      <path
         d="m 237.15898,32.403527 v 5.060161 h 5.78776 V 22.647006 h -5.78776 v 5.060162 h -8.67614 v -5.060162 h -5.77674 v 14.816682 h 5.77674 v -5.060161 z"
         id="path10862" />
      <path
         d="m 254.77583,26.957514 2.02847,4.376654 h -4.06797 z m -11.38812,10.528223 h 6.50434 l 1.16858,-2.535593 H 258.48 l 1.16857,2.535593 h 6.50435 l -7.94853,-14.816682 h -6.86815 z"
         id="path10864" />
      <path
         d="m 281.04676,30.49632 -6.50434,-7.849314 h -7.94854 v 14.816682 h 5.77674 v -9.050964 l 7.95956,9.050964 h 6.50435 V 22.647006 h -5.78777 z"
         id="path10866" />
      <path
         d="m 298.96131,31.863335 h 4.65226 c -0.87092,1.12448 -2.32613,1.256772 -4.60817,1.256772 -2.37022,-0.03307 -4.37665,-0.451997 -4.34358,-2.888371 v -0.363802 c -0.0331,-2.414326 1.97336,-2.855298 4.34358,-2.888371 0.84888,0 1.62058,0.08819 2.30409,0.264583 0.6835,0.176389 1.21267,0.507119 1.57647,1.003213 h 6.14055 c -0.65044,-4.564067 -4.88377,-5.964155 -10.02111,-5.964155 -5.5783,0.01102 -10.14237,1.620574 -10.12032,7.231952 v 1.080383 c -0.0221,5.600353 4.54202,7.209903 10.12032,7.231952 2.51355,0 5.12631,-0.606338 6.8461,-2.304083 l 0.28664,2.304083 h 2.88837 v -8.499749 h -10.0652 z"
         id="path10868" />
      <path
         d="m 311.6613,37.485737 h 17.34125 v -3.80339 h -11.56451 v -1.896182 h 11.56451 V 28.357602 H 317.43804 V 26.46142 h 11.56451 V 22.669055 H 311.6613 Z"
         id="path10870" />
      <path
         d="m 340.46785,22.647006 v 14.816682 h 5.77674 V 22.647006 Z"
         id="path10872" />
      <path
         d="m 363.76222,30.49632 -6.50435,-7.849314 h -7.94853 v 14.816682 h 5.77674 v -9.050964 l 7.95956,9.050964 h 6.50434 V 22.647006 h -5.78776 z"
         id="path10874" />
      <path
         d="m 387.06762,27.530779 c 0,-1.179602 2.20486,-1.444186 4.00183,-1.444186 1.80798,0 3.34036,0.275608 4.00182,1.444186 h 6.05235 c -0.55121,-4.630213 -4.86172,-5.214502 -10.05417,-5.247575 -5.20348,0 -10.05418,1.014237 -10.05418,5.247575 -0.011,3.70417 5.79879,3.990802 9.93291,4.200264 2.32613,0.110244 4.12309,0.209462 4.12309,0.859897 0,1.146529 -2.20486,1.444186 -4.00182,1.444186 -1.80799,0 -3.34037,-0.297657 -4.00183,-1.444186 h -6.05235 c 0.55122,4.59714 4.86172,5.225526 10.05418,5.236551 5.20347,0 10.05417,-1.003213 10.05417,-5.236551 0.011,-3.715195 -5.79879,-4.001827 -9.93291,-4.211289 -2.32613,-0.110243 -4.12309,-0.198438 -4.12309,-0.848872 z"
         id="path10876" />
      <path
         d="m 412.26923,22.283204 c -5.57831,0.01102 -10.14237,1.620574 -10.12032,7.231952 v 1.080383 c -0.022,5.600353 4.54201,7.220927 10.12032,7.231952 5.56728,-0.01103 10.13135,-1.631599 10.1093,-7.231952 v -1.080383 c 0,-5.600353 -4.531,-7.231952 -10.1093,-7.231952 z m 4.33256,7.948532 c 0.0331,2.42535 -1.97336,2.866323 -4.33256,2.899396 -2.37023,-0.03307 -4.37666,-0.474046 -4.34358,-2.899396 v -0.363802 c -0.0331,-2.414326 1.97335,-2.855298 4.34358,-2.888371 2.3592,0.03307 4.36563,0.474045 4.33256,2.888371 z"
         id="path10878" />
      <path
         d="m 438.20943,31.323144 c -0.52917,1.455209 -2.18281,1.807988 -4.16719,1.807988 -2.3592,-0.03307 -4.36563,-0.474046 -4.33256,-2.888371 v -0.363803 c -0.0331,-2.436374 1.97336,-2.855298 4.33256,-2.888371 1.98438,0 3.627,0.341754 4.16719,1.796964 h 5.92006 c -0.3638,-4.994016 -4.75148,-6.493323 -10.08725,-6.504347 -5.55626,0.02205 -10.14237,1.631599 -10.12032,7.231952 v 1.080383 c -0.022,5.611377 4.56406,7.220927 10.12032,7.231952 5.33577,0 9.72345,-1.499308 10.08725,-6.504347 z"
         id="path10880" />
      <path
         d="m 445.84928,22.647006 v 14.816682 h 5.77675 V 22.647006 Z"
         id="path10882" />
      <path
         d="m 454.69081,37.485737 h 17.34125 v -3.80339 h -11.56451 v -1.896182 h 11.56451 V 28.357602 H 460.46755 V 26.46142 h 11.56451 v -3.792365 h -17.34125 z"
         id="path10884" />
      <path
         d="M 486.48493,37.485737 V 27.365414 h 6.86815 v -4.696359 h -19.51304 v 4.696359 h 6.86815 v 10.120323 z"
         id="path10886" />
      <path
         d="m 500.6622,22.669055 h -6.86815 l 8.31233,9.75652 v 5.060162 h 5.77674 v -5.060162 l 8.31234,-9.75652 h -6.85713 l -4.34358,5.313721 z"
         id="path10888" />
      <path
         d="M 540.30561,37.485737 V 27.365414 h 6.86815 v -4.696359 h -19.51304 v 4.696359 h 6.86815 v 10.120323 z"
         id="path10890" />
      <path
         d="m 563.55592,32.403527 v 5.060161 h 5.78776 V 22.647006 h -5.78776 v 5.060162 h -8.67614 v -5.060162 h -5.77674 v 14.816682 h 5.77674 v -5.060161 z"
         id="path10892" />
      <path
         d="m 572.70613,22.658031 v 14.816681 h 5.77674 v -3.615976 h 5.15938 l 2.78915,3.615976 h 6.15157 l -3.23013,-4.156167 c 0.97014,-0.451997 1.75287,-1.135505 2.33716,-2.028474 0.59531,-0.903994 0.89297,-1.918231 0.89297,-3.031687 0.0441,-3.064761 -2.54662,-5.633426 -5.60035,-5.600353 z m 12.82128,4.332556 c 0.70555,0 1.26779,0.56224 1.26779,1.267797 0,0.341753 -0.12126,0.63941 -0.37482,0.892969 -0.24254,0.242535 -0.5402,0.363803 -0.89297,0.363803 h -7.04454 v -2.524569 z"
         id="path10894" />
      <path
         d="m 604.05924,22.283204 c -5.57831,0.01102 -10.14237,1.620574 -10.12033,7.231952 v 1.080383 c -0.022,5.600353 4.54202,7.220927 10.12033,7.231952 5.56728,-0.01103 10.13134,-1.631599 10.1093,-7.231952 v -1.080383 c 0,-5.600353 -4.531,-7.231952 -10.1093,-7.231952 z m 4.33255,7.948532 c 0.0331,2.42535 -1.97335,2.866323 -4.33255,2.899396 -2.37023,-0.03307 -4.37666,-0.474046 -4.34358,-2.899396 v -0.363802 c -0.0331,-2.414326 1.97335,-2.855298 4.34358,-2.888371 2.3592,0.03307 4.36563,0.474045 4.33255,2.888371 z"
         id="path10896" />
      <path
         d="m 630.24201,30.242761 c 0.0331,2.436374 -1.97335,2.855298 -4.33255,2.888371 -2.37023,-0.03307 -4.36563,-0.451997 -4.34358,-2.888371 v -7.595755 h -5.77675 v 7.959557 c -0.022,5.600353 4.56407,7.209903 10.12033,7.220928 5.55625,-0.01103 10.14237,-1.620575 10.12032,-7.220928 v -7.959557 h -5.78777 z"
         id="path10898" />
      <path
         d="m 647.92499,31.863335 h 4.65226 c -0.87092,1.12448 -2.32613,1.256772 -4.60816,1.256772 -2.37023,-0.03307 -4.37666,-0.451997 -4.34358,-2.888371 v -0.363802 c -0.0331,-2.414326 1.97335,-2.855298 4.34358,-2.888371 0.84887,0 1.62057,0.08819 2.30408,0.264583 0.68351,0.176389 1.21268,0.507119 1.57648,1.003213 h 6.14054 c -0.65043,-4.564067 -4.88377,-5.964155 -10.0211,-5.964155 -5.57831,0.01102 -10.14237,1.620574 -10.12032,7.231952 v 1.080383 c -0.022,5.600353 4.54201,7.209903 10.12032,7.231952 2.51354,0 5.12631,-0.606338 6.8461,-2.304083 l 0.28663,2.304083 h 2.88837 v -8.499749 h -10.0652 z"
         id="path10900" />
      <path
         d="m 675.07789,32.403527 v 5.060161 h 5.78777 V 22.647006 h -5.78777 v 5.060162 h -8.67614 v -5.060162 h -5.77674 v 14.816682 h 5.77674 v -5.060161 z"
         id="path10902" />
      <path
         d="m 706.61846,31.323144 c -0.52917,1.455209 -2.18282,1.807988 -4.16719,1.807988 -2.35921,-0.03307 -4.36563,-0.474046 -4.33256,-2.888371 v -0.363803 c -0.0331,-2.436374 1.97335,-2.855298 4.33256,-2.888371 1.98437,0 3.627,0.341754 4.16719,1.796964 h 5.92006 c -0.36381,-4.994016 -4.75148,-6.493323 -10.08725,-6.504347 -5.55626,0.02205 -10.14238,1.631599 -10.12033,7.231952 v 1.080383 c -0.0221,5.611377 4.56407,7.220927 10.12033,7.231952 5.33577,0 9.72344,-1.499308 10.08725,-6.504347 z"
         id="path10904" />
      <path
         d="m 728.55689,30.242761 c 0.0331,2.436374 -1.97335,2.855298 -4.33255,2.888371 -2.37023,-0.03307 -4.36563,-0.451997 -4.34358,-2.888371 v -7.595755 h -5.77675 v 7.959557 c -0.022,5.600353 4.56407,7.209903 10.12033,7.220928 5.55625,-0.01103 10.14237,-1.620575 10.12032,-7.220928 v -7.959557 h -5.78777 z"
         id="path10906" />
      <path
         d="M 748.89673,37.485737 V 27.365414 h 6.86815 v -4.696359 h -19.51304 v 4.696359 h 6.86815 v 10.120323 z"
         id="path10908" />
      <path
         d="M 770.48237,37.485737 V 27.365414 h 6.86814 v -4.696359 h -19.51304 v 4.696359 h 6.86815 v 10.120323 z"
         id="path10910" />
      <path
         d="m 779.27973,22.647006 v 14.816682 h 5.77675 V 22.647006 Z"
         id="path10912" />
      <path
         d="m 802.57411,30.49632 -6.50435,-7.849314 h -7.94853 v 14.816682 h 5.77674 v -9.050964 l 7.95956,9.050964 h 6.50434 V 22.647006 h -5.78776 z"
         id="path10914" />
      <path
         d="m 820.48865,31.863335 h 4.65226 c -0.87092,1.12448 -2.32613,1.256772 -4.60816,1.256772 -2.37023,-0.03307 -4.37666,-0.451997 -4.34358,-2.888371 v -0.363802 c -0.0331,-2.414326 1.97335,-2.855298 4.34358,-2.888371 0.84887,0 1.62057,0.08819 2.30408,0.264583 0.68351,0.176389 1.21268,0.507119 1.57648,1.003213 h 6.14054 c -0.65043,-4.564067 -4.88377,-5.964155 -10.0211,-5.964155 -5.57831,0.01102 -10.14237,1.620574 -10.12032,7.231952 v 1.080383 c -0.022,5.600353 4.54201,7.209903 10.12032,7.231952 2.51354,0 5.12631,-0.606338 6.8461,-2.304083 l 0.28663,2.304083 h 2.88837 v -8.499749 h -10.0652 z"
         id="path10916" />
      <path
         d="m 830.99482,27.894581 v 4.332557 h 16.26087 v -4.332557 z"
         id="path10918" />
      <path
         d="m 847.69667,37.485737 h 17.34125 v -3.80339 h -11.56451 v -1.896182 h 11.56451 V 28.357602 H 853.47341 V 26.46142 h 11.56451 v -3.792365 h -17.34125 z"
         id="path10920" />
      <path
         d="m 882.55555,30.077396 c 0,1.488283 -0.84887,2.711982 -2.34818,2.711982 h -6.32796 v -5.423964 h 6.32796 c 1.49931,0 2.34818,1.212675 2.34818,2.711982 z m -14.45288,-7.408341 v 14.816682 h 13.18508 c 4.06798,0.05512 7.08864,-3.384466 7.05557,-7.408341 0.0331,-4.045924 -2.98759,-7.463463 -7.05557,-7.408341 z"
         id="path10922" />
      <path
         d="m 899.96295,31.863335 h 4.65227 c -0.87092,1.12448 -2.32613,1.256772 -4.60817,1.256772 -2.37023,-0.03307 -4.37665,-0.451997 -4.34358,-2.888371 v -0.363802 c -0.0331,-2.414326 1.97335,-2.855298 4.34358,-2.888371 0.84887,0 1.62058,0.08819 2.30408,0.264583 0.68351,0.176389 1.21268,0.507119 1.57648,1.003213 h 6.14055 c -0.65044,-4.564067 -4.88378,-5.964155 -10.02111,-5.964155 -5.5783,0.01102 -10.14237,1.620574 -10.12032,7.231952 v 1.080383 c -0.022,5.600353 4.54202,7.209903 10.12032,7.231952 2.51355,0 5.12631,-0.606338 6.8461,-2.304083 l 0.28664,2.304083 h 2.88837 v -8.499749 h -10.06521 z"
         id="path10924" />
      <path
         d="m 912.66297,37.485737 h 17.34125 v -3.80339 h -11.5645 v -1.896182 h 11.5645 v -3.428563 h -11.5645 V 26.46142 h 11.5645 v -3.792365 h -17.34125 z"
         id="path10926" />
      <path
         d="m 947.52184,27.530779 c 0,-1.179602 2.20487,-1.444186 4.00183,-1.444186 1.80799,0 3.34037,0.275608 4.00183,1.444186 h 6.05235 c -0.55122,-4.630213 -4.86173,-5.214502 -10.05418,-5.247575 -5.20348,0 -10.05418,1.014237 -10.05418,5.247575 -0.011,3.70417 5.79879,3.990802 9.93291,4.200264 2.32613,0.110244 4.1231,0.209462 4.1231,0.859897 0,1.146529 -2.20487,1.444186 -4.00183,1.444186 -1.80799,0 -3.34037,-0.297657 -4.00183,-1.444186 h -6.05235 c 0.55122,4.59714 4.86173,5.225526 10.05418,5.236551 5.20348,0 10.05418,-1.003213 10.05418,-5.236551 0.011,-3.715195 -5.79879,-4.001827 -9.93291,-4.211289 -2.32613,-0.110243 -4.1231,-0.198438 -4.1231,-0.848872 z"
         id="path10928" />
      <path
         d="m 966.71521,22.669055 h -6.86815 l 8.31233,9.75652 v 5.060162 h 5.77674 v -5.060162 l 8.31234,-9.75652 h -6.85713 l -4.34358,5.313721 z"
         id="path10930" />
      <path
         d="m 987.16528,27.530779 c 0,-1.179602 2.20486,-1.444186 4.00182,-1.444186 1.80799,0 3.34037,0.275608 4.00183,1.444186 h 6.05237 c -0.5512,-4.630213 -4.86174,-5.214502 -10.0542,-5.247575 -5.20347,0 -10.05417,1.014237 -10.05417,5.247575 -0.011,3.70417 5.79879,3.990802 9.93291,4.200264 2.32613,0.110244 4.12309,0.209462 4.12309,0.859897 0,1.146529 -2.20486,1.444186 -4.00183,1.444186 -1.80799,0 -3.34037,-0.297657 -4.00182,-1.444186 h -6.05235 c 0.55121,4.59714 4.86172,5.225526 10.05417,5.236551 5.20348,0 10.0542,-1.003213 10.0542,-5.236551 0.011,-3.715195 -5.79881,-4.001827 -9.93293,-4.211289 -2.32613,-0.110243 -4.12309,-0.198438 -4.12309,-0.848872 z"
         id="path10932" />
      <path
         d="M 1014.0425,37.485737 V 27.365414 h 6.8682 v -4.696359 h -19.513 v 4.696359 h 6.8681 v 10.120323 z"
         id="path10934" />
      <path
         d="m 1022.84,37.485737 h 17.3412 v -3.80339 h -11.5645 v -1.896182 h 11.5645 v -3.428563 h -11.5645 V 26.46142 h 11.5645 V 22.669055 H 1022.84 Z"
         id="path10936" />
      <path
         d="m 1043.246,37.463688 h 5.7768 v -7.904435 l 5.7878,7.904435 h 2.8883 l 5.7878,-7.904435 v 7.904435 h 5.7767 V 22.647006 h -7.2209 l -5.7878,7.408341 -5.7767,-7.408341 h -7.232 z"
         id="path10938" />
      <path
         d="m 1092.1168,26.957514 2.0285,4.376654 h -4.068 z m -11.3881,10.528223 h 6.5044 l 1.1685,-2.535593 h 7.4194 l 1.1686,2.535593 h 6.5043 l -7.9485,-14.816682 h -6.8682 z"
         id="path10940" />
      <path
         d="m 1109.7116,29.52618 v -2.524569 h 7.0556 c 0.3417,0 0.6394,0.121268 0.8819,0.374827 0.2536,0.242535 0.3749,0.540192 0.3749,0.89297 0,0.341754 -0.1213,0.63941 -0.3749,0.89297 -0.2425,0.242534 -0.5402,0.363802 -0.8819,0.363802 z m -5.7767,-6.857125 v 14.816682 h 5.7767 v -3.615976 h 8.4998 c 3.0537,0.0441 5.6444,-2.546617 5.6003,-5.600353 0.044,-3.06476 -2.5466,-5.633426 -5.6003,-5.600353 z"
         id="path10942" />
      <path
         d="m 1131.1539,29.52618 v -2.524569 h 7.0556 c 0.3417,0 0.6394,0.121268 0.8819,0.374827 0.2536,0.242535 0.3748,0.540192 0.3748,0.89297 0,0.341754 -0.1212,0.63941 -0.3748,0.89297 -0.2425,0.242534 -0.5402,0.363802 -0.8819,0.363802 z m -5.7768,-6.857125 v 14.816682 h 5.7768 v -3.615976 h 8.4997 c 3.0538,0.0441 5.6445,-2.546617 5.6004,-5.600353 0.044,-3.06476 -2.5466,-5.633426 -5.6004,-5.600353 z"
         id="path10944" />
      <path
         d="m 1146.8194,22.647006 v 14.816682 h 17.3413 v -4.696359 h -11.5646 V 22.647006 Z"
         id="path10946" />
      <path
         d="m 1166.112,22.647006 v 14.816682 h 5.7768 V 22.647006 Z"
         id="path10948" />
      <path
         d="m 1187.874,31.323144 c -0.5292,1.455209 -2.1828,1.807988 -4.1672,1.807988 -2.3592,-0.03307 -4.3656,-0.474046 -4.3325,-2.888371 v -0.363803 c -0.033,-2.436374 1.9733,-2.855298 4.3325,-2.888371 1.9844,0 3.627,0.341754 4.1672,1.796964 h 5.9201 c -0.3638,-4.994016 -4.7515,-6.493323 -10.0873,-6.504347 -5.5562,0.02205 -10.1424,1.631599 -10.1203,7.231952 v 1.080383 c -0.022,5.611377 4.5641,7.220927 10.1203,7.231952 5.3358,0 9.7235,-1.499308 10.0873,-6.504347 z"
         id="path10950" />
      <path
         d="m 1204.3002,26.957514 2.0285,4.376654 h -4.068 z m -11.3881,10.528223 h 6.5043 l 1.1686,-2.535593 h 7.4193 l 1.1686,2.535593 h 6.5044 l -7.9486,-14.816682 h -6.8681 z"
         id="path10952" />
      <path
         d="M 1224.4858,37.485737 V 27.365414 h 6.8681 v -4.696359 h -19.513 v 4.696359 h 6.8681 v 10.120323 z"
         id="path10954" />
      <path
         d="m 1233.2832,22.647006 v 14.816682 h 5.7767 V 22.647006 Z"
         id="path10956" />
      <path
         d="m 1250.878,22.283204 c -5.5783,0.01102 -10.1424,1.620574 -10.1204,7.231952 v 1.080383 c -0.022,5.600353 4.5421,7.220927 10.1204,7.231952 5.5672,-0.01103 10.1313,-1.631599 10.1093,-7.231952 v -1.080383 c 0,-5.600353 -4.531,-7.231952 -10.1093,-7.231952 z m 4.3325,7.948532 c 0.033,2.42535 -1.9733,2.866323 -4.3325,2.899396 -2.3703,-0.03307 -4.3767,-0.474046 -4.3436,-2.899396 v -0.363802 c -0.033,-2.414326 1.9733,-2.855298 4.3436,-2.888371 2.3592,0.03307 4.3656,0.474045 4.3325,2.888371 z"
         id="path10958" />
      <path
         d="m 1277.1489,30.49632 -6.5044,-7.849314 h -7.9485 v 14.816682 h 5.7767 v -9.050964 l 7.9596,9.050964 h 6.5043 V 22.647006 h -5.7877 z"
         id="path10960" />
      <path
         d="m 1290.9513,27.530779 c 0,-1.179602 2.2049,-1.444186 4.0019,-1.444186 1.808,0 3.3403,0.275608 4.0018,1.444186 h 6.0524 c -0.5513,-4.630213 -4.8618,-5.214502 -10.0542,-5.247575 -5.2035,0 -10.0542,1.014237 -10.0542,5.247575 -0.011,3.70417 5.7988,3.990802 9.9329,4.200264 2.3261,0.110244 4.1231,0.209462 4.1231,0.859897 0,1.146529 -2.2049,1.444186 -4.0018,1.444186 -1.808,0 -3.3404,-0.297657 -4.0019,-1.444186 h -6.0523 c 0.5512,4.59714 4.8617,5.225526 10.0542,5.236551 5.2035,0 10.0542,-1.003213 10.0542,-5.236551 0.011,-3.715195 -5.7988,-4.001827 -9.933,-4.211289 -2.3261,-0.110243 -4.1231,-0.198438 -4.1231,-0.848872 z"
         id="path10962" />
    </g>
  </g>
</svg>
